<svg width="1427" height="1549" viewBox="0 0 1427 1549" fill="none" xmlns="http://www.w3.org/2000/svg">
<path d="M770.152 -331.505C551.14 -347.854 392.663 -221.638 366.25 -200.601C39.1713 68.6823 62.9744 682.076 331.29 1051.9C368.467 1102.97 640.855 1477.31 1016.56 1424.08C1270.16 1387.82 1449.85 1174.03 1521.91 992.336C1728.71 475.767 1275.35 -292.982 770.152 -331.505Z" stroke="#646464" stroke-opacity="0.2" stroke-width="3" stroke-miterlimit="10"/>
<path d="M895.422 -349.036C673.87 -353.803 506.538 -222.094 479.079 -199.563C132.91 80.295 125.179 678.298 377.577 1024.73C412.289 1072.96 668.759 1423.91 1052.98 1352.16C1312.18 1303.12 1505.51 1084.96 1588.82 903.897C1825.32 388.634 1406.07 -338.983 895.422 -349.036Z" stroke="#646464" stroke-opacity="0.2" stroke-width="3" stroke-miterlimit="10"/>
<path d="M1069.95 -228.559C869.317 -218.682 709.756 -94.8936 682.82 -73.1103C351.332 189.748 306.87 705.82 513.907 988.219C542.379 1027.07 752.853 1314.1 1105.65 1227.59C1343.56 1169.21 1532.82 968.797 1619.6 807.428C1866.08 348.692 1532.14 -251.866 1069.95 -228.559Z" stroke="#646464" stroke-opacity="0.2" stroke-width="3" stroke-miterlimit="10"/>
<path d="M1227.77 -102.512C1066.11 -87.0708 932.323 15.7934 909.907 33.5041C632.59 250.778 576.763 654.244 732.76 866.408C754.356 895.996 912.819 1111 1200.35 1029.46C1394.4 974.897 1554.22 811.768 1630.91 682.306C1846.57 316.115 1600.67 -138.217 1227.77 -102.512Z" stroke="#646464" stroke-opacity="0.2" stroke-width="3" stroke-miterlimit="10"/>
<path d="M1247.28 52.5353C1121.11 64.9851 1016.69 144.982 999.433 158.508C783.048 327.694 739.096 642.614 860.605 807.817C877.681 830.344 1001.02 998.498 1225 935.38C1376.01 893.003 1500.86 765.518 1560.44 665.274C1729.89 378.628 1537.76 24.8311 1247.28 52.5353Z" stroke="#646464" stroke-opacity="0.2" stroke-width="3" stroke-miterlimit="10"/>
<path d="M1372.25 3.62136C1246.08 16.0711 1141.66 96.0684 1124.4 109.594C908.129 279.415 864.699 593.588 986.209 758.791C1003.28 781.318 1126.62 949.472 1350.6 886.354C1501.61 843.976 1626.46 716.492 1686.05 616.248C1855.61 330.237 1663.36 -24.195 1372.25 3.62136Z" stroke="#646464" stroke-opacity="0.2" stroke-width="3" stroke-miterlimit="10"/>
<path d="M1469.05 -52.7629C1342.88 -40.3131 1238.46 39.6841 1221.2 53.21C1004.93 223.031 961.498 537.204 1083.01 702.406C1100.08 724.934 1223.42 893.088 1447.4 829.97C1598.41 787.592 1723.26 660.108 1782.85 559.864C1952.3 273.218 1760.05 -81.2144 1469.05 -52.7629Z" stroke="#646464" stroke-opacity="0.2" stroke-width="3" stroke-miterlimit="10"/>
<path d="M496.554 737.827C470.446 845.914 577.492 940.318 593.858 955.112C657.375 1010.7 747.194 1044.62 763.22 1024.11C779.77 1002.85 696.002 947.559 646.677 812.838C608.673 708.864 621.708 641.725 590.249 634.18C559.837 625.141 510.636 680.327 496.554 737.827Z" stroke="#646464" stroke-opacity="0.2" stroke-width="3" stroke-miterlimit="10"/>
</svg>
